<svg width="257" height="256" viewBox="0 0 257 256" fill="none" xmlns="http://www.w3.org/2000/svg">
<path d="M31.997 216.669C-12.7362 168.246 -9.74542 92.7288 38.6771 47.9956L56.3303 31.6874C104.753 -13.0458 180.271 -10.055 225.004 38.3675C269.737 86.7901 266.746 162.308 218.324 207.041L200.67 223.349C152.248 268.082 76.7302 265.092 31.997 216.669Z" fill="black"/>
<ellipse cx="139.184" cy="117.478" rx="103.442" ry="105.597" fill="#FFC309"/>
<ellipse cx="157.789" cy="70.7016" rx="16.1628" ry="23.7055" transform="rotate(-37.3198 157.789 70.7016)" fill="black"/>
<ellipse cx="95.2929" cy="109.494" rx="16.1628" ry="23.7055" transform="rotate(-37.3198 95.2929 109.494)" fill="black"/>
<path d="M109.069 159.607L194.284 106.473C196.034 105.381 198.311 105.812 199.407 107.559C205.939 117.968 223.846 153.251 186.595 179.974C144.556 210.133 115.694 175.957 107.898 164.882C106.655 163.116 107.236 160.749 109.069 159.607Z" fill="black"/>
</svg>
